<svg width="282" height="282" viewBox="0 0 282 282" fill="none" xmlns="http://www.w3.org/2000/svg">
<rect width="282" height="282" rx="10" fill="#F6F7F8"/>
<path d="M108.5 153.5L125.697 136.303C126.393 135.607 127.22 135.054 128.13 134.678C129.04 134.301 130.015 134.107 131 134.107C131.985 134.107 132.96 134.301 133.87 134.678C134.78 135.054 135.607 135.607 136.303 136.303L153.5 153.5M148.5 148.5L153.197 143.803C153.893 143.107 154.72 142.554 155.63 142.178C156.54 141.801 157.515 141.607 158.5 141.607C159.485 141.607 160.46 141.801 161.37 142.178C162.28 142.554 163.107 143.107 163.803 143.803L173.5 153.5M113.5 166H168.5C169.826 166 171.098 165.473 172.036 164.536C172.973 163.598 173.5 162.326 173.5 161V121C173.5 119.674 172.973 118.402 172.036 117.464C171.098 116.527 169.826 116 168.5 116H113.5C112.174 116 110.902 116.527 109.964 117.464C109.027 118.402 108.5 119.674 108.5 121V161C108.5 162.326 109.027 163.598 109.964 164.536C110.902 165.473 112.174 166 113.5 166ZM148.5 128.5H148.527V128.527H148.5V128.5ZM149.75 128.5C149.75 128.832 149.618 129.149 149.384 129.384C149.149 129.618 148.832 129.75 148.5 129.75C148.168 129.75 147.851 129.618 147.616 129.384C147.382 129.149 147.25 128.832 147.25 128.5C147.25 128.168 147.382 127.851 147.616 127.616C147.851 127.382 148.168 127.25 148.5 127.25C148.832 127.25 149.149 127.382 149.384 127.616C149.618 127.851 149.75 128.168 149.75 128.5Z" stroke="#E7E8EA" stroke-width="4" stroke-linecap="round" stroke-linejoin="round"/>
</svg>
