<svg width="44" height="44" viewBox="0 0 44 44" fill="none" xmlns="http://www.w3.org/2000/svg">
<path d="M24.74 19L24.394 28M19.606 28L19.26 19M29.228 15.79C29.57 15.842 29.91 15.897 30.25 15.956M29.228 15.79L28.16 29.673C28.1164 30.2383 27.8611 30.7662 27.445 31.1513C27.029 31.5364 26.4829 31.7502 25.916 31.75H18.084C17.5171 31.7502 16.971 31.5364 16.555 31.1513C16.1389 30.7662 15.8836 30.2383 15.84 29.673L14.772 15.79M29.228 15.79C28.0739 15.6155 26.9138 15.4831 25.75 15.393M14.772 15.79C14.43 15.841 14.09 15.896 13.75 15.955M14.772 15.79C15.9261 15.6156 17.0862 15.4831 18.25 15.393M25.75 15.393V14.477C25.75 13.297 24.84 12.313 23.66 12.276C22.5536 12.2407 21.4464 12.2407 20.34 12.276C19.16 12.313 18.25 13.298 18.25 14.477V15.393M25.75 15.393C23.2537 15.2001 20.7463 15.2001 18.25 15.393" stroke="white" stroke-width="1.5" stroke-linecap="round" stroke-linejoin="round"/>
</svg>
