<svg width="44" height="44" viewBox="0 0 44 44" fill="none" xmlns="http://www.w3.org/2000/svg">
<path d="M13.98 18.223C13.0444 19.3272 12.3478 20.6132 11.934 22C13.226 26.338 17.244 29.5 22 29.5C22.993 29.5 23.953 29.362 24.863 29.105M16.228 16.228C17.9406 15.0979 19.948 14.4969 22 14.5C26.756 14.5 30.773 17.662 32.065 21.998C31.3569 24.3673 29.837 26.4116 27.772 27.772M16.228 16.228L13 13M16.228 16.228L19.878 19.878M27.772 27.772L31 31M27.772 27.772L24.122 24.122C24.4006 23.8434 24.6216 23.5127 24.7723 23.1486C24.9231 22.7846 25.0007 22.3945 25.0007 22.0005C25.0007 21.6065 24.9231 21.2164 24.7723 20.8524C24.6216 20.4883 24.4006 20.1576 24.122 19.879C23.8434 19.6004 23.5126 19.3794 23.1486 19.2286C22.7846 19.0778 22.3945 19.0002 22.0005 19.0002C21.6065 19.0002 21.2163 19.0778 20.8523 19.2286C20.4883 19.3794 20.1576 19.6004 19.879 19.879M24.121 24.121L19.88 19.88" stroke="white" stroke-width="1.5" stroke-linecap="round" stroke-linejoin="round"/>
</svg>
