<svg width="81" height="34" viewBox="0 0 81 34" fill="none" xmlns="http://www.w3.org/2000/svg">
<path d="M5.98703 20.3107V0H0V26.0394H15.3418V20.3107H5.98703ZM26.1932 26.5602C31.6938 26.5602 36.1092 22.2823 36.1092 16.7396C36.1092 11.1969 31.6938 6.91904 26.1932 6.91904C20.6927 6.91904 16.2772 11.1969 16.2772 16.7396C16.2772 22.2823 20.6933 26.5602 26.1932 26.5602ZM26.1932 21.1291C23.761 21.1291 21.8901 19.3807 21.8901 16.7396C21.8901 14.0985 23.761 12.3501 26.1932 12.3501C28.6255 12.3501 30.4964 14.0979 30.4964 16.7396C30.4964 19.3813 28.6255 21.1291 26.1932 21.1291ZM52.6478 7.43983V9.33698C51.413 7.81182 49.6169 6.91904 47.1847 6.91904C41.8712 6.91904 37.9796 11.2341 37.9796 16.3676C37.9796 21.5011 41.8712 25.8162 47.1847 25.8162C49.6169 25.8162 51.4136 24.9234 52.6478 23.3982V25.1094C52.6478 27.7505 51.0388 29.0891 48.4189 29.0891C45.9492 29.0891 44.8641 28.0476 44.1531 26.7456L39.3647 29.4995C41.086 32.5498 44.3414 34.0006 48.233 34.0006C53.2097 34.0006 58.1116 31.3595 58.1116 25.11V7.43983H52.6478ZM48.1207 20.6827C45.464 20.6827 43.593 18.9344 43.593 16.3676C43.593 13.8009 45.464 12.0525 48.1207 12.0525C50.7775 12.0525 52.6478 13.8009 52.6478 16.3676C52.6478 18.9344 50.7775 20.6827 48.1207 20.6827ZM70.8346 26.5602C76.3346 26.5602 80.7506 22.2823 80.7506 16.7396C80.7506 11.1969 76.3346 6.91904 70.8346 6.91904C65.3346 6.91904 60.918 11.1969 60.918 16.7396C60.918 22.2823 65.3334 26.5602 70.8346 26.5602ZM70.8346 21.1291C68.4024 21.1291 66.5314 19.3807 66.5314 16.7396C66.5314 14.0985 68.4024 12.3501 70.8346 12.3501C73.2668 12.3501 75.1378 14.0979 75.1378 16.7396C75.1378 19.3813 73.2662 21.1291 70.8346 21.1291Z" fill="#0082F5"/>
</svg>
