<svg width="44" height="44" viewBox="0 0 44 44" fill="none" xmlns="http://www.w3.org/2000/svg">
<path d="M16.75 22C16.75 22.1989 16.671 22.3897 16.5303 22.5303C16.3897 22.671 16.1989 22.75 16 22.75C15.8011 22.75 15.6103 22.671 15.4697 22.5303C15.329 22.3897 15.25 22.1989 15.25 22C15.25 21.8011 15.329 21.6103 15.4697 21.4697C15.6103 21.329 15.8011 21.25 16 21.25C16.1989 21.25 16.3897 21.329 16.5303 21.4697C16.671 21.6103 16.75 21.8011 16.75 22ZM22.75 22C22.75 22.1989 22.671 22.3897 22.5303 22.5303C22.3897 22.671 22.1989 22.75 22 22.75C21.8011 22.75 21.6103 22.671 21.4697 22.5303C21.329 22.3897 21.25 22.1989 21.25 22C21.25 21.8011 21.329 21.6103 21.4697 21.4697C21.6103 21.329 21.8011 21.25 22 21.25C22.1989 21.25 22.3897 21.329 22.5303 21.4697C22.671 21.6103 22.75 21.8011 22.75 22ZM28.75 22C28.75 22.1989 28.671 22.3897 28.5303 22.5303C28.3897 22.671 28.1989 22.75 28 22.75C27.8011 22.75 27.6103 22.671 27.4697 22.5303C27.329 22.3897 27.25 22.1989 27.25 22C27.25 21.8011 27.329 21.6103 27.4697 21.4697C27.6103 21.329 27.8011 21.25 28 21.25C28.1989 21.25 28.3897 21.329 28.5303 21.4697C28.671 21.6103 28.75 21.8011 28.75 22Z" stroke="white" stroke-width="1.5" stroke-linecap="round" stroke-linejoin="round"/>
</svg>
