<svg width="68" height="68" viewBox="0 0 68 68" fill="none" xmlns="http://www.w3.org/2000/svg">
<rect width="68" height="67.9997" rx="33.9999" fill="white"/>
<rect x="0.5" y="0.5" width="67" height="66.9997" rx="33.4999" stroke="#212121" stroke-opacity="0.7"/>
<path d="M39.9825 40.7247C39.2838 39.7996 38.3798 39.0493 37.3417 38.5331C36.3036 38.0168 35.1599 37.7487 34.0005 37.7497C32.8411 37.7487 31.6974 38.0168 30.6593 38.5331C29.6213 39.0493 28.7172 39.7996 28.0185 40.7247M39.9825 40.7247C41.346 39.5119 42.3076 37.9133 42.7417 36.1408C43.1758 34.3683 43.0608 32.5058 42.412 30.8002C41.7632 29.0946 40.6112 27.6265 39.1089 26.5906C37.6066 25.5547 35.8248 25 34 25C32.1752 25 30.3934 25.5547 28.8911 26.5906C27.3888 27.6265 26.2368 29.0946 25.588 30.8002C24.9392 32.5058 24.8243 34.3683 25.2583 36.1408C25.6924 37.9133 26.655 39.5119 28.0185 40.7247M39.9825 40.7247C38.3365 42.1929 36.2061 43.0028 34.0005 42.9997C31.7945 43.0031 29.6647 42.1931 28.0185 40.7247M37.0005 31.7497C37.0005 32.5454 36.6844 33.3084 36.1218 33.871C35.5592 34.4336 34.7962 34.7497 34.0005 34.7497C33.2049 34.7497 32.4418 34.4336 31.8792 33.871C31.3166 33.3084 31.0005 32.5454 31.0005 31.7497C31.0005 30.9541 31.3166 30.191 31.8792 29.6284C32.4418 29.0658 33.2049 28.7497 34.0005 28.7497C34.7962 28.7497 35.5592 29.0658 36.1218 29.6284C36.6844 30.191 37.0005 30.9541 37.0005 31.7497Z" stroke="#212121" stroke-opacity="0.7" stroke-linecap="round" stroke-linejoin="round"/>
</svg>
