<svg width="44" height="44" viewBox="0 0 44 44" fill="none" xmlns="http://www.w3.org/2000/svg">
<path d="M20.343 13.94C20.433 13.398 20.903 13 21.453 13H22.546C23.096 13 23.566 13.398 23.656 13.94L23.805 14.834C23.875 15.258 24.189 15.598 24.585 15.764C24.983 15.928 25.44 15.906 25.79 15.656L26.527 15.129C26.7438 14.9741 27.0085 14.9011 27.274 14.923C27.5396 14.945 27.7887 15.0605 27.977 15.249L28.75 16.023C29.14 16.412 29.19 17.025 28.87 17.473L28.343 18.21C28.093 18.56 28.071 19.016 28.236 19.414C28.401 19.811 28.741 20.124 29.166 20.194L30.059 20.344C30.602 20.434 30.999 20.903 30.999 21.453V22.547C30.999 23.097 30.602 23.567 30.059 23.657L29.165 23.806C28.741 23.876 28.401 24.189 28.236 24.586C28.071 24.984 28.093 25.44 28.343 25.79L28.87 26.528C29.19 26.975 29.139 27.588 28.75 27.978L27.976 28.751C27.7877 28.9392 27.5388 29.0546 27.2735 29.0765C27.0082 29.0985 26.7437 29.0257 26.527 28.871L25.789 28.344C25.439 28.094 24.983 28.072 24.586 28.237C24.188 28.402 23.876 28.742 23.805 29.166L23.656 30.06C23.566 30.602 23.096 31 22.546 31H21.452C20.902 31 20.433 30.602 20.342 30.06L20.194 29.166C20.123 28.742 19.81 28.402 19.413 28.236C19.015 28.072 18.559 28.094 18.209 28.344L17.471 28.871C17.024 29.191 16.411 29.14 16.021 28.751L15.248 27.977C15.0596 27.7887 14.944 27.5395 14.9221 27.274C14.9001 27.0085 14.9731 26.7438 15.128 26.527L15.655 25.79C15.905 25.44 15.927 24.984 15.763 24.586C15.598 24.189 15.257 23.876 14.833 23.806L13.939 23.656C13.397 23.566 12.999 23.096 12.999 22.547V21.453C12.999 20.903 13.397 20.433 13.939 20.343L14.833 20.194C15.257 20.124 15.598 19.811 15.763 19.414C15.928 19.016 15.906 18.56 15.655 18.21L15.129 17.472C14.9741 17.2552 14.9011 16.9905 14.9231 16.725C14.945 16.4595 15.0606 16.2103 15.249 16.022L16.022 15.249C16.2104 15.0605 16.4595 14.945 16.725 14.923C16.9905 14.9011 17.2553 14.9741 17.472 15.129L18.209 15.656C18.559 15.906 19.016 15.928 19.413 15.763C19.81 15.598 20.123 15.258 20.193 14.834L20.343 13.94Z" stroke="white" stroke-width="1.5" stroke-linecap="round" stroke-linejoin="round"/>
<path d="M25 22C25 22.7956 24.6839 23.5587 24.1213 24.1213C23.5587 24.6839 22.7956 25 22 25C21.2044 25 20.4413 24.6839 19.8787 24.1213C19.3161 23.5587 19 22.7956 19 22C19 21.2044 19.3161 20.4413 19.8787 19.8787C20.4413 19.3161 21.2044 19 22 19C22.7956 19 23.5587 19.3161 24.1213 19.8787C24.6839 20.4413 25 21.2044 25 22Z" stroke="white" stroke-width="1.5" stroke-linecap="round" stroke-linejoin="round"/>
</svg>
