<svg width="214" height="119" viewBox="0 0 214 119" fill="none" xmlns="http://www.w3.org/2000/svg">
<rect width="214" height="119" rx="10" fill="#D9D9D9"/>
<path d="M74.066 65V52.31H82.076V53.552H75.506V57.944H81.698V59.186H75.506V63.758H82.076V65H74.066ZM96.0621 67.34V65H84.4341V56.252H85.8381V63.83H89.4921V56.252H90.8781V63.83H94.5321V56.252H95.9361V63.83H97.3221V67.34H96.0621ZM103.23 65.162C101.85 65.162 100.758 64.76 99.9541 63.956C99.1501 63.14 98.7481 62.036 98.7481 60.644C98.7481 59.744 98.9281 58.952 99.2881 58.268C99.6481 57.572 100.14 57.038 100.764 56.666C101.4 56.282 102.132 56.09 102.96 56.09C104.148 56.09 105.078 56.474 105.75 57.242C106.422 57.998 106.758 59.042 106.758 60.374V60.932H100.17C100.218 61.928 100.506 62.69 101.034 63.218C101.562 63.734 102.294 63.992 103.23 63.992C103.758 63.992 104.262 63.914 104.742 63.758C105.222 63.59 105.678 63.32 106.11 62.948L106.614 63.974C106.218 64.346 105.714 64.64 105.102 64.856C104.49 65.06 103.866 65.162 103.23 65.162ZM102.996 57.17C102.168 57.17 101.514 57.428 101.034 57.944C100.554 58.46 100.272 59.138 100.188 59.978H105.498C105.462 59.09 105.228 58.4 104.796 57.908C104.376 57.416 103.776 57.17 102.996 57.17ZM113.649 65V56.252H115.107V59.888H119.877V56.252H121.335V65H119.877V61.076H115.107V65H113.649ZM128.173 65.162C126.793 65.162 125.701 64.76 124.897 63.956C124.093 63.14 123.691 62.036 123.691 60.644C123.691 59.744 123.871 58.952 124.231 58.268C124.591 57.572 125.083 57.038 125.707 56.666C126.343 56.282 127.075 56.09 127.903 56.09C129.091 56.09 130.021 56.474 130.693 57.242C131.365 57.998 131.701 59.042 131.701 60.374V60.932H125.113C125.161 61.928 125.449 62.69 125.977 63.218C126.505 63.734 127.237 63.992 128.173 63.992C128.701 63.992 129.205 63.914 129.685 63.758C130.165 63.59 130.621 63.32 131.053 62.948L131.557 63.974C131.161 64.346 130.657 64.64 130.045 64.856C129.433 65.06 128.809 65.162 128.173 65.162ZM127.939 57.17C127.111 57.17 126.457 57.428 125.977 57.944C125.497 58.46 125.215 59.138 125.131 59.978H130.441C130.405 59.09 130.171 58.4 129.739 57.908C129.319 57.416 128.719 57.17 127.939 57.17ZM135.787 65V57.422H132.619V56.252H140.431V57.422H137.245V65H135.787Z" fill="#212121"/>
</svg>
