<svg width="24" height="24" viewBox="0 0 24 24" fill="none" xmlns="http://www.w3.org/2000/svg">
<path d="M14.74 8.99954L14.394 17.9995M9.606 17.9995L9.26 8.99954M19.228 5.78954C19.57 5.84154 19.91 5.89654 20.25 5.95554M19.228 5.78954L18.16 19.6725C18.1164 20.2378 17.8611 20.7657 17.445 21.1508C17.029 21.5359 16.4829 21.7497 15.916 21.7495H8.084C7.5171 21.7497 6.97102 21.5359 6.55498 21.1508C6.13894 20.7657 5.88359 20.2378 5.84 19.6725L4.772 5.78954M19.228 5.78954C18.0739 5.61506 16.9138 5.48264 15.75 5.39254M4.772 5.78954C4.43 5.84054 4.09 5.89554 3.75 5.95454M4.772 5.78954C5.92613 5.61506 7.08623 5.48264 8.25 5.39254M15.75 5.39254V4.47654C15.75 3.29654 14.84 2.31254 13.66 2.27554C12.5536 2.24018 11.4464 2.24018 10.34 2.27554C9.16 2.31254 8.25 3.29754 8.25 4.47654V5.39254M15.75 5.39254C13.2537 5.19962 10.7463 5.19962 8.25 5.39254" stroke="white" stroke-width="1.5" stroke-linecap="round" stroke-linejoin="round"/>
</svg>
